<svg xmlns="http://www.w3.org/2000/svg" xmlns:xlink="http://www.w3.org/1999/xlink" width="1080" zoomAndPan="magnify" viewBox="0 0 810 809.999993" height="1080" preserveAspectRatio="xMidYMid meet" version="1.0"><defs><clipPath id="86f2283b27"><path d="M 6.964844 6.964844 L 802.714844 6.964844 L 802.714844 802.714844 L 6.964844 802.714844 Z M 6.964844 6.964844 " clip-rule="nonzero"/></clipPath></defs><g clip-path="url(#86f2283b27)"><path fill="#faa005" d="M 415.585938 802.871094 C 421.238281 767.765625 418.929688 729.238281 407.945312 690.386719 C 453 691.820312 494.238281 660.933594 499.890625 616.117188 C 490.257812 610.621094 472.902344 602.902344 463.269531 597.40625 C 448.144531 537.78125 427.207031 528.707031 381.59375 511.113281 L 381.59375 466.613281 C 283.757812 475.371094 253.667969 583 196.90625 673.75 C 205.1875 595.179688 234.402344 522.816406 278.34375 465.179688 C 168.886719 449.261719 105.675781 399.425781 97.875 284.632812 L 244.828125 284.632812 L 303.023438 226.441406 L 416.460938 226.441406 L 439.785156 89.675781 C 632.515625 170 509.761719 484.921875 676.535156 695.960938 C 754.3125 623.359375 803.03125 519.871094 803.03125 405 C 803.03125 185.203125 624.792969 6.964844 405 6.964844 C 185.203125 6.964844 6.964844 185.203125 6.964844 405 C 6.964844 624.792969 185.203125 803.03125 405 803.03125 C 408.582031 803.03125 412.082031 802.953125 415.585938 802.871094 Z M 337.8125 289.011719 C 352.617188 289.011719 364.636719 301.03125 364.636719 315.917969 C 364.636719 330.726562 352.617188 342.824219 337.8125 342.824219 C 323.003906 342.824219 310.902344 330.804688 310.902344 315.917969 C 310.984375 301.03125 323.003906 289.011719 337.8125 289.011719 Z M 409.933594 617.546875 C 399.984375 617.546875 391.941406 609.507812 391.941406 599.558594 C 391.941406 589.605469 399.984375 581.566406 409.933594 581.566406 C 419.886719 581.566406 427.925781 589.605469 427.925781 599.558594 C 427.925781 609.429688 419.886719 617.546875 409.933594 617.546875 Z M 409.933594 617.546875 " fill-opacity="1" fill-rule="evenodd"/></g></svg>