<svg xmlns="http://www.w3.org/2000/svg" xmlns:xlink="http://www.w3.org/1999/xlink" width="1080" zoomAndPan="magnify" viewBox="0 0 810 809.999993" height="1080" preserveAspectRatio="xMidYMid meet" version="1.0"><defs><clipPath id="b5b7d383a4"><path d="M 102 1.082031 L 737 1.082031 L 737 707 L 102 707 Z M 102 1.082031 " clip-rule="nonzero"/></clipPath><clipPath id="7c47473314"><path d="M 34 66 L 779.625 66 L 779.625 810 L 34 810 Z M 34 66 " clip-rule="nonzero"/></clipPath></defs><path fill="#ffffff" d="M 301.308594 688.679688 C 294.359375 637.566406 419.476562 639.203125 456.070312 661.894531 C 456.070312 661.894531 440.125 624.480469 382.066406 614.054688 C 320.117188 603.015625 229.550781 633.476562 163.3125 594.632812 C 30.425781 516.742188 66.203125 276.523438 164.128906 181.253906 C 100.753906 242.585938 61.089844 328.859375 61.089844 424.128906 C 61.089844 610.375 212.171875 761.664062 398.621094 761.664062 C 461.59375 761.664062 520.46875 744.285156 570.96875 714.4375 C 520.472656 739.378906 310.917969 759.621094 301.308594 688.679688 Z M 301.308594 688.679688 " fill-opacity="1" fill-rule="evenodd"/><g clip-path="url(#b5b7d383a4)"><path fill="#ffffff" d="M 255.71875 517.152344 C 314.597656 499.976562 334.023438 462.769531 418.863281 474.421875 C 480.605469 410.023438 429.90625 332.539062 489.398438 289.402344 C 494.917969 330.085938 513.929688 342.964844 534.375 346.035156 C 556.453125 349.507812 572.398438 342.558594 588.550781 345.214844 C 650.292969 354.824219 620.035156 448.664062 691.179688 455 C 678.300781 538.003906 619.011719 509.175781 586.097656 534.117188 C 545.003906 565.601562 551.957031 662.714844 584.054688 706.257812 C 675.644531 645.746094 736.15625 542.089844 736.15625 424.128906 C 736.15625 254.648438 611.246094 114.195312 448.507812 90.277344 C 386.152344 15.453125 304.785156 1.140625 304.785156 1.140625 C 338.3125 31.601562 353.441406 61.65625 353.851562 89.460938 C 354.464844 127.285156 328.910156 161.425781 286.179688 188.820312 C 238.746094 219.28125 226.890625 263.4375 224.027344 288.382812 C 219.734375 327.019531 163.511719 367.703125 129.78125 401.234375 C 94.003906 436.601562 87.050781 491.390625 145.113281 504.476562 C 164.535156 508.976562 189.886719 503.046875 203.992188 511.226562 C 223.417969 522.671875 242.433594 521.035156 255.71875 517.152344 Z M 255.71875 517.152344 " fill-opacity="1" fill-rule="evenodd"/></g><path fill="#ffffff" d="M 282.503906 36.304688 C 327.273438 74.128906 331.773438 113.789062 331.363281 130.550781 C 337.90625 117.671875 341.175781 104.179688 340.972656 90.277344 C 340.765625 78.417969 337.90625 66.152344 332.179688 53.679688 C 317.460938 47.140625 300.902344 41.007812 282.503906 36.304688 Z M 282.503906 36.304688 " fill-opacity="1" fill-rule="evenodd"/><g clip-path="url(#7c47473314)"><path fill="#ffffff" d="M 395.761719 788.855469 C 200.519531 788.855469 41.464844 634.09375 34.515625 440.691406 C 35.539062 645.539062 201.953125 811.140625 407.007812 811.140625 C 612.878906 811.140625 779.703125 644.316406 779.703125 438.648438 C 779.703125 240.339844 624.941406 78.214844 429.699219 66.566406 C 430.105469 66.972656 430.3125 67.179688 430.722656 67.585938 C 613.902344 85.171875 757.214844 239.523438 757.214844 427.40625 C 757.214844 627.140625 595.503906 788.855469 395.761719 788.855469 Z M 395.761719 788.855469 " fill-opacity="1" fill-rule="evenodd"/></g></svg>